include "hUGE.inc"

SECTION "sample_song Song Data", ROMX

sample_song::
db 5
dw order_cnt
dw order1, order2, order3, order4
dw duty_instruments, wave_instruments, noise_instruments
dw routines
dw waves

order_cnt: db 18
order1: dw P0,P4,P4,P11,P11,P11,P11,P21,P21
order2: dw P1,P5,P9,P1,P5,P1,P14,P18,P22
order3: dw P2,P6,P10,P12,P12,P12,P15,P19,P19
order4: dw P7,P7,P3,P13,P13,P13,P16,P20,P20

P0:
 dn C_6,3,$000
 dn ___,0,$000
 dn D#6,3,$000
 dn C_6,3,$C05
 dn G_6,3,$000
 dn D#6,3,$C05
 dn D#6,3,$000
 dn G_6,3,$C05
 dn C_6,3,$000
 dn D#6,3,$C05
 dn D#6,3,$000
 dn C_6,3,$C05
 dn G_6,3,$000
 dn D#6,3,$C05
 dn D#6,3,$000
 dn G_6,3,$C05
 dn C_6,3,$000
 dn D#6,3,$C05
 dn D#6,3,$000
 dn C_6,3,$C05
 dn G_6,3,$000
 dn D#6,3,$C05
 dn D#6,3,$000
 dn G_6,3,$C05
 dn C_6,3,$000
 dn D#6,3,$C05
 dn D#6,3,$000
 dn C_6,3,$C05
 dn G_6,3,$000
 dn D#6,3,$C05
 dn D#6,3,$000
 dn G_6,3,$C05
 dn C_6,3,$000
 dn ___,0,$000
 dn D#6,3,$000
 dn C_6,3,$C05
 dn G#6,3,$000
 dn D#6,3,$C05
 dn D#6,3,$000
 dn G#6,3,$C05
 dn C_6,3,$000
 dn D#6,3,$C05
 dn D#6,3,$000
 dn C_6,3,$C05
 dn G#6,3,$000
 dn D#6,3,$C05
 dn D#6,3,$000
 dn G#6,3,$C05
 dn A#5,3,$000
 dn ___,0,$000
 dn D_6,3,$000
 dn A#5,3,$C05
 dn F_6,3,$000
 dn D_6,3,$C05
 dn D_6,3,$000
 dn F_6,3,$C05
 dn A#5,3,$000
 dn D_6,3,$C05
 dn D_6,3,$000
 dn A#5,3,$C05
 dn F_6,3,$000
 dn D_6,3,$C05
 dn D_6,3,$000
 dn F_6,3,$C05

P1:
 dn G_5,2,$481
 dn ___,0,$481
 dn A#5,2,$30F
 dn G_5,2,$C07
 dn C_6,2,$338
 dn ___,0,$481
 dn ___,0,$481
 dn ___,0,$481
 dn ___,0,$481
 dn ___,0,$481
 dn ___,0,$481
 dn ___,0,$481
 dn ___,0,$482
 dn ___,0,$482
 dn ___,0,$482
 dn ___,0,$482
 dn ___,0,$A01
 dn ___,0,$482
 dn ___,0,$A01
 dn ___,0,$482
 dn ___,0,$A01
 dn ___,0,$482
 dn ___,0,$A01
 dn ___,0,$A01
 dn D#6,2,$310
 dn ___,0,$481
 dn D_6,2,$330
 dn D#6,2,$C07
 dn C_6,2,$330
 dn D_6,2,$C07
 dn A#5,2,$330
 dn C_6,2,$C07
 dn G#5,2,$340
 dn ___,0,$481
 dn ___,0,$481
 dn ___,0,$481
 dn ___,0,$A02
 dn ___,0,$481
 dn ___,0,$A02
 dn ___,0,$A02
 dn D_6,2,$340
 dn ___,0,$481
 dn D#6,2,$350
 dn D_6,2,$C07
 dn D_6,2,$340
 dn D#6,2,$C07
 dn G#5,2,$350
 dn D_6,2,$C07
 dn A#5,2,$34F
 dn ___,0,$481
 dn ___,0,$481
 dn ___,0,$481
 dn ___,0,$481
 dn ___,0,$481
 dn ___,0,$A02
 dn ___,0,$A02
 dn D#6,2,$360
 dn ___,0,$481
 dn D_6,2,$330
 dn D#6,2,$C07
 dn C_6,2,$330
 dn D_6,2,$C07
 dn A#5,2,$360
 dn C_6,2,$C07

P2:
 dn C_4,4,$C00
 dn ___,0,$C00
 dn ___,0,$C01
 dn ___,0,$C01
 dn ___,0,$C02
 dn ___,0,$C03
 dn ___,0,$C03
 dn ___,0,$C04
 dn ___,0,$C05
 dn ___,0,$C05
 dn ___,0,$C06
 dn ___,0,$C06
 dn ___,0,$C07
 dn ___,0,$C08
 dn ___,0,$C08
 dn ___,0,$C09
 dn ___,0,$C0A
 dn ___,0,$C0A
 dn ___,0,$C0B
 dn ___,0,$C0B
 dn ___,0,$C0C
 dn ___,0,$C0D
 dn ___,0,$C0D
 dn ___,0,$C0E
 dn ___,0,$C0F
 dn ___,0,$443
 dn ___,0,$443
 dn ___,0,$443
 dn ___,0,$443
 dn ___,0,$443
 dn ___,0,$443
 dn ___,0,$443
 dn G#3,4,$34F
 dn ___,0,$443
 dn ___,0,$443
 dn ___,0,$443
 dn ___,0,$443
 dn ___,0,$443
 dn ___,0,$443
 dn ___,0,$443
 dn ___,0,$443
 dn ___,0,$443
 dn ___,0,$443
 dn ___,0,$443
 dn ___,0,$443
 dn ___,0,$443
 dn ___,0,$443
 dn ___,0,$443
 dn A#3,4,$34F
 dn ___,0,$443
 dn ___,0,$443
 dn ___,0,$443
 dn ___,0,$443
 dn ___,0,$443
 dn ___,0,$443
 dn ___,0,$443
 dn ___,0,$443
 dn ___,0,$443
 dn ___,0,$443
 dn ___,0,$443
 dn ___,0,$443
 dn ___,0,$443
 dn ___,0,$443
 dn ___,0,$443

P3:
 dn ___,0,$F05
 dn ___,0,$000
 dn ___,0,$000
 dn ___,0,$000
 dn ___,0,$000
 dn ___,0,$000
 dn ___,0,$000
 dn ___,0,$000
 dn ___,0,$000
 dn ___,0,$000
 dn ___,0,$000
 dn ___,0,$000
 dn ___,0,$000
 dn ___,0,$000
 dn ___,0,$000
 dn ___,0,$000
 dn ___,0,$000
 dn ___,0,$000
 dn ___,0,$000
 dn ___,0,$000
 dn ___,0,$000
 dn ___,0,$000
 dn ___,0,$000
 dn ___,0,$000
 dn ___,0,$000
 dn ___,0,$000
 dn ___,0,$000
 dn ___,0,$000
 dn ___,0,$000
 dn ___,0,$000
 dn ___,0,$000
 dn ___,0,$000
 dn D_7,8,$000
 dn ___,0,$000
 dn ___,0,$000
 dn ___,0,$000
 dn ___,0,$000
 dn ___,0,$000
 dn ___,0,$000
 dn ___,0,$000
 dn ___,0,$000
 dn ___,0,$000
 dn ___,0,$000
 dn ___,0,$000
 dn ___,0,$000
 dn ___,0,$000
 dn ___,0,$000
 dn ___,0,$000
 dn E_7,8,$000
 dn ___,0,$000
 dn ___,0,$000
 dn ___,0,$000
 dn ___,0,$000
 dn ___,0,$000
 dn ___,0,$000
 dn ___,0,$000
 dn ___,0,$000
 dn ___,0,$000
 dn ___,0,$000
 dn ___,0,$000
 dn ___,0,$000
 dn ___,0,$000
 dn ___,0,$000
 dn ___,0,$000

P4:
 dn C_6,3,$000
 dn ___,0,$000
 dn D#6,3,$000
 dn C_6,3,$C05
 dn G_6,3,$000
 dn D#6,3,$C05
 dn D#6,3,$000
 dn G_6,3,$C05
 dn C_6,3,$000
 dn D#6,3,$C05
 dn D#6,3,$000
 dn C_6,3,$C05
 dn G_6,3,$000
 dn D#6,3,$C05
 dn D#6,3,$000
 dn G_6,3,$C05
 dn C_6,3,$000
 dn D#6,3,$C05
 dn D#6,3,$000
 dn C_6,3,$C05
 dn G_6,3,$000
 dn D#6,3,$C05
 dn D#6,3,$000
 dn G_6,3,$C05
 dn C_6,3,$000
 dn D#6,3,$C05
 dn D#6,3,$000
 dn C_6,3,$C05
 dn G_6,3,$000
 dn D#6,3,$C05
 dn D#6,3,$000
 dn G_6,3,$C05
 dn C_6,3,$000
 dn ___,0,$000
 dn D#6,3,$000
 dn C_6,3,$C05
 dn G#6,3,$000
 dn D#6,3,$C05
 dn D#6,3,$000
 dn G#6,3,$C05
 dn C_6,3,$000
 dn D#6,3,$C05
 dn D#6,3,$000
 dn C_6,3,$C05
 dn G#6,3,$000
 dn D#6,3,$C05
 dn D#6,3,$000
 dn G#6,3,$C05
 dn A#5,3,$000
 dn ___,0,$000
 dn D_6,3,$000
 dn A#5,3,$C05
 dn F_6,3,$000
 dn D_6,3,$C05
 dn D_6,3,$000
 dn F_6,3,$C05
 dn A#5,3,$000
 dn D_6,3,$C05
 dn D_6,3,$000
 dn A#5,3,$C05
 dn F_6,3,$000
 dn D_6,3,$C05
 dn D_6,3,$000
 dn F_6,3,$C05

P5:
 dn G_5,2,$481
 dn ___,0,$481
 dn A#5,2,$30F
 dn G_5,2,$C07
 dn C_6,2,$338
 dn ___,0,$481
 dn ___,0,$481
 dn ___,0,$481
 dn ___,0,$481
 dn ___,0,$481
 dn ___,0,$481
 dn ___,0,$481
 dn ___,0,$482
 dn ___,0,$482
 dn ___,0,$482
 dn ___,0,$482
 dn ___,0,$A01
 dn ___,0,$482
 dn ___,0,$A01
 dn ___,0,$482
 dn ___,0,$A01
 dn ___,0,$482
 dn ___,0,$A01
 dn ___,0,$A01
 dn D#6,2,$310
 dn ___,0,$481
 dn D_6,2,$330
 dn D#6,2,$C07
 dn D#6,2,$330
 dn D_6,2,$C07
 dn D_6,2,$330
 dn D#6,2,$C07
 dn C_6,2,$340
 dn ___,0,$481
 dn ___,0,$481
 dn ___,0,$481
 dn ___,0,$A02
 dn ___,0,$481
 dn ___,0,$A02
 dn ___,0,$A02
 dn D_6,2,$340
 dn ___,0,$481
 dn D#6,2,$350
 dn D_6,2,$C07
 dn D_6,2,$340
 dn D#6,2,$C07
 dn C_6,2,$350
 dn D_6,2,$C07
 dn D_6,2,$34F
 dn ___,0,$481
 dn ___,0,$481
 dn ___,0,$481
 dn ___,0,$481
 dn ___,0,$481
 dn ___,0,$A02
 dn ___,0,$A02
 dn D#6,2,$360
 dn ___,0,$481
 dn D_6,2,$330
 dn D#6,2,$C07
 dn C_6,2,$330
 dn D_6,2,$C07
 dn A#5,2,$360
 dn C_6,2,$C07

P6:
 dn C_4,4,$443
 dn ___,0,$443
 dn ___,0,$443
 dn ___,0,$443
 dn ___,0,$443
 dn ___,0,$443
 dn ___,0,$443
 dn ___,0,$443
 dn ___,0,$443
 dn ___,0,$443
 dn ___,0,$443
 dn ___,0,$443
 dn ___,0,$443
 dn ___,0,$443
 dn ___,0,$443
 dn ___,0,$443
 dn ___,0,$443
 dn ___,0,$443
 dn ___,0,$443
 dn ___,0,$443
 dn ___,0,$443
 dn ___,0,$443
 dn ___,0,$443
 dn ___,0,$443
 dn ___,0,$443
 dn ___,0,$443
 dn ___,0,$443
 dn ___,0,$443
 dn ___,0,$443
 dn ___,0,$443
 dn ___,0,$443
 dn ___,0,$443
 dn G#3,4,$34F
 dn ___,0,$443
 dn ___,0,$443
 dn ___,0,$443
 dn ___,0,$443
 dn ___,0,$443
 dn ___,0,$443
 dn ___,0,$443
 dn ___,0,$443
 dn ___,0,$443
 dn ___,0,$443
 dn ___,0,$443
 dn ___,0,$443
 dn ___,0,$443
 dn ___,0,$443
 dn ___,0,$443
 dn A#3,4,$34F
 dn ___,0,$443
 dn ___,0,$443
 dn ___,0,$443
 dn ___,0,$443
 dn ___,0,$443
 dn ___,0,$443
 dn ___,0,$443
 dn ___,0,$443
 dn ___,0,$443
 dn ___,0,$443
 dn ___,0,$443
 dn ___,0,$443
 dn ___,0,$443
 dn ___,0,$443
 dn ___,0,$443

P7:
 dn ___,0,$E00
 dn ___,0,$000
 dn ___,0,$000
 dn ___,0,$000
 dn ___,0,$000
 dn ___,0,$000
 dn ___,0,$000
 dn ___,0,$000
 dn ___,0,$000
 dn ___,0,$000
 dn ___,0,$000
 dn ___,0,$000
 dn ___,0,$000
 dn ___,0,$000
 dn ___,0,$000
 dn ___,0,$000
 dn ___,0,$000
 dn ___,0,$000
 dn ___,0,$000
 dn ___,0,$000
 dn ___,0,$000
 dn ___,0,$000
 dn ___,0,$000
 dn ___,0,$000
 dn ___,0,$000
 dn ___,0,$000
 dn ___,0,$000
 dn ___,0,$000
 dn ___,0,$000
 dn ___,0,$000
 dn ___,0,$000
 dn ___,0,$000
 dn ___,0,$000
 dn ___,0,$000
 dn ___,0,$000
 dn ___,0,$000
 dn ___,0,$000
 dn ___,0,$000
 dn ___,0,$000
 dn ___,0,$000
 dn ___,0,$000
 dn ___,0,$000
 dn ___,0,$000
 dn ___,0,$000
 dn ___,0,$000
 dn ___,0,$000
 dn ___,0,$000
 dn ___,0,$000
 dn ___,0,$000
 dn ___,0,$000
 dn ___,0,$000
 dn ___,0,$000
 dn ___,0,$000
 dn ___,0,$000
 dn ___,0,$000
 dn ___,0,$000
 dn ___,0,$000
 dn ___,0,$000
 dn ___,0,$000
 dn ___,0,$000
 dn ___,0,$000
 dn ___,0,$000
 dn ___,0,$000
 dn ___,0,$000

P9:
 dn G_5,2,$481
 dn ___,0,$481
 dn A#5,2,$30F
 dn G_5,2,$C07
 dn C_6,2,$338
 dn ___,0,$481
 dn ___,0,$481
 dn ___,0,$481
 dn ___,0,$481
 dn ___,0,$481
 dn ___,0,$481
 dn ___,0,$481
 dn ___,0,$482
 dn ___,0,$482
 dn ___,0,$482
 dn ___,0,$482
 dn ___,0,$A01
 dn ___,0,$482
 dn ___,0,$A01
 dn ___,0,$482
 dn ___,0,$A01
 dn ___,0,$482
 dn ___,0,$A01
 dn ___,0,$A01
 dn D#6,2,$310
 dn ___,0,$481
 dn D_6,2,$330
 dn D#6,2,$C07
 dn D#6,2,$330
 dn D_6,2,$C07
 dn D_6,2,$330
 dn D#6,2,$C07
 dn D#6,2,$340
 dn ___,0,$481
 dn ___,0,$481
 dn ___,0,$481
 dn ___,0,$A02
 dn ___,0,$481
 dn ___,0,$A02
 dn ___,0,$A02
 dn D_6,2,$340
 dn ___,0,$481
 dn D#6,2,$350
 dn D_6,2,$C07
 dn D_6,2,$340
 dn D#6,2,$C07
 dn C_6,2,$350
 dn D_6,2,$C07
 dn D_6,2,$34F
 dn ___,0,$481
 dn ___,0,$481
 dn ___,0,$481
 dn ___,0,$481
 dn ___,0,$481
 dn ___,0,$A02
 dn ___,0,$A02
 dn D#6,2,$360
 dn ___,0,$481
 dn D_6,2,$330
 dn D#6,2,$C07
 dn C_6,2,$330
 dn D_6,2,$C07
 dn A#5,2,$360
 dn C_6,2,$C07

P10:
 dn C_4,4,$443
 dn ___,0,$443
 dn ___,0,$443
 dn ___,0,$443
 dn ___,0,$443
 dn ___,0,$443
 dn ___,0,$443
 dn ___,0,$443
 dn ___,0,$443
 dn ___,0,$443
 dn ___,0,$443
 dn ___,0,$443
 dn G_3,4,$443
 dn ___,0,$443
 dn ___,0,$443
 dn ___,0,$443
 dn C_4,4,$443
 dn ___,0,$443
 dn ___,0,$443
 dn ___,0,$443
 dn ___,0,$443
 dn ___,0,$443
 dn ___,0,$443
 dn ___,0,$443
 dn ___,0,$443
 dn ___,0,$443
 dn ___,0,$443
 dn ___,0,$443
 dn G_3,4,$443
 dn ___,0,$443
 dn ___,0,$443
 dn ___,0,$443
 dn G#3,4,$34F
 dn ___,0,$443
 dn ___,0,$443
 dn ___,0,$443
 dn ___,0,$443
 dn ___,0,$443
 dn ___,0,$443
 dn ___,0,$443
 dn ___,0,$443
 dn ___,0,$443
 dn ___,0,$443
 dn ___,0,$443
 dn D#3,4,$443
 dn ___,0,$443
 dn ___,0,$443
 dn ___,0,$443
 dn A#3,4,$34F
 dn ___,0,$443
 dn ___,0,$443
 dn ___,0,$443
 dn ___,0,$443
 dn ___,0,$443
 dn ___,0,$443
 dn ___,0,$443
 dn F_3,4,$443
 dn ___,0,$443
 dn F_4,4,$443
 dn ___,0,$443
 dn A#3,4,$443
 dn ___,0,$443
 dn A#4,4,$443
 dn ___,0,$443

P11:
 dn C_7,10,$027
 dn ___,0,$027
 dn ___,0,$027
 dn ___,0,$027
 dn C_7,9,$037
 dn C_7,10,$037
 dn C_7,9,$037
 dn C_7,10,$037
 dn ___,0,$037
 dn ___,0,$037
 dn ___,0,$037
 dn ___,0,$037
 dn C_7,9,$037
 dn C_7,10,$037
 dn C_7,9,$037
 dn C_7,10,$037
 dn C_7,10,$037
 dn ___,0,$027
 dn ___,0,$027
 dn ___,0,$027
 dn C_7,9,$037
 dn C_7,10,$037
 dn C_7,9,$037
 dn C_7,10,$037
 dn ___,0,$037
 dn ___,0,$037
 dn ___,0,$037
 dn ___,0,$037
 dn C_7,9,$037
 dn C_7,10,$037
 dn C_7,9,$037
 dn C_7,10,$037
 dn C_7,10,$028
 dn ___,0,$028
 dn ___,0,$028
 dn ___,0,$028
 dn C_7,9,$038
 dn C_7,10,$038
 dn C_7,9,$038
 dn C_7,10,$038
 dn ___,0,$038
 dn ___,0,$038
 dn ___,0,$038
 dn ___,0,$038
 dn C_7,9,$038
 dn C_7,10,$038
 dn C_7,9,$038
 dn C_7,10,$038
 dn A#6,10,$027
 dn ___,0,$027
 dn ___,0,$027
 dn ___,0,$027
 dn A#6,9,$047
 dn A#6,10,$047
 dn A#6,9,$047
 dn A#6,10,$047
 dn ___,0,$047
 dn ___,0,$047
 dn ___,0,$047
 dn ___,0,$047
 dn A#6,9,$047
 dn A#6,10,$047
 dn A#6,9,$047
 dn A#6,10,$047

P12:
 dn C_4,5,$442
 dn ___,0,$442
 dn C_5,5,$442
 dn ___,0,$442
 dn C_4,5,$442
 dn ___,0,$442
 dn C_5,5,$442
 dn ___,0,$442
 dn C_4,5,$442
 dn ___,0,$442
 dn C_5,5,$442
 dn ___,0,$442
 dn C_4,5,$442
 dn ___,0,$442
 dn C_5,5,$442
 dn ___,0,$442
 dn C_4,5,$442
 dn ___,0,$442
 dn C_5,5,$442
 dn ___,0,$442
 dn C_4,5,$442
 dn ___,0,$442
 dn C_5,5,$442
 dn ___,0,$442
 dn C_4,5,$442
 dn ___,0,$442
 dn C_5,5,$442
 dn ___,0,$442
 dn C_4,5,$442
 dn ___,0,$442
 dn C_5,5,$442
 dn ___,0,$442
 dn G#3,5,$442
 dn ___,0,$442
 dn G#4,5,$442
 dn ___,0,$442
 dn G#3,5,$442
 dn ___,0,$442
 dn G#4,5,$442
 dn ___,0,$442
 dn G#3,5,$442
 dn ___,0,$442
 dn G#4,5,$442
 dn ___,0,$442
 dn G#3,5,$442
 dn ___,0,$442
 dn G#4,5,$442
 dn ___,0,$442
 dn A#3,5,$442
 dn ___,0,$442
 dn A#4,5,$442
 dn ___,0,$442
 dn A#3,5,$442
 dn ___,0,$442
 dn A#4,5,$442
 dn ___,0,$442
 dn A#3,5,$442
 dn ___,0,$442
 dn A#4,5,$442
 dn ___,0,$442
 dn A#3,5,$442
 dn ___,0,$442
 dn A#4,5,$442
 dn ___,0,$442

P13:
 dn F_5,1,$000
 dn ___,0,$000
 dn F_6,2,$000
 dn ___,0,$000
 dn A#5,3,$000
 dn ___,0,$000
 dn F_6,2,$000
 dn ___,0,$000
 dn F_5,1,$000
 dn ___,0,$000
 dn F_5,1,$000
 dn ___,0,$000
 dn A#5,3,$000
 dn ___,0,$000
 dn F_5,1,$000
 dn F_6,2,$000
 dn F_5,1,$000
 dn ___,0,$000
 dn F_6,2,$000
 dn ___,0,$000
 dn A#5,3,$000
 dn ___,0,$000
 dn F_6,2,$000
 dn ___,0,$000
 dn F_5,1,$000
 dn ___,0,$000
 dn F_5,1,$000
 dn ___,0,$000
 dn A#5,3,$000
 dn ___,0,$000
 dn F_5,1,$000
 dn F_6,2,$000
 dn F_5,1,$000
 dn ___,0,$000
 dn F_6,2,$000
 dn ___,0,$000
 dn A#5,3,$000
 dn ___,0,$000
 dn F_6,2,$000
 dn ___,0,$000
 dn F_5,1,$000
 dn ___,0,$000
 dn F_5,1,$000
 dn ___,0,$000
 dn A#5,3,$000
 dn ___,0,$000
 dn F_5,1,$000
 dn F_6,2,$000
 dn F_5,1,$000
 dn ___,0,$000
 dn F_6,2,$000
 dn ___,0,$000
 dn A#5,3,$000
 dn ___,0,$000
 dn F_6,2,$000
 dn ___,0,$000
 dn F_5,1,$000
 dn ___,0,$000
 dn F_5,1,$000
 dn ___,0,$000
 dn A#5,3,$000
 dn ___,0,$000
 dn F_5,1,$000
 dn F_6,2,$000

P14:
 dn G_5,2,$481
 dn ___,0,$481
 dn A#5,2,$30F
 dn G_5,2,$C07
 dn C_6,2,$338
 dn ___,0,$481
 dn ___,0,$481
 dn ___,0,$481
 dn ___,0,$481
 dn ___,0,$481
 dn ___,0,$481
 dn ___,0,$481
 dn ___,0,$482
 dn ___,0,$482
 dn ___,0,$482
 dn ___,0,$482
 dn ___,0,$A01
 dn ___,0,$482
 dn ___,0,$A01
 dn ___,0,$482
 dn ___,0,$A01
 dn ___,0,$482
 dn ___,0,$A01
 dn ___,0,$A01
 dn D#6,2,$310
 dn ___,0,$481
 dn D_6,2,$330
 dn D#6,2,$C07
 dn D#6,2,$330
 dn D_6,2,$C07
 dn D_6,2,$330
 dn D#6,2,$C07
 dn D#6,2,$340
 dn ___,0,$481
 dn ___,0,$481
 dn ___,0,$481
 dn ___,0,$A02
 dn ___,0,$481
 dn ___,0,$A02
 dn ___,0,$A02
 dn D_6,2,$340
 dn ___,0,$481
 dn D#6,2,$350
 dn D_6,2,$C07
 dn D_6,2,$340
 dn D#6,2,$C07
 dn C_6,2,$350
 dn D_6,2,$C07
 dn D_6,2,$34F
 dn ___,0,$481
 dn ___,0,$481
 dn ___,0,$481
 dn ___,0,$481
 dn ___,0,$481
 dn ___,0,$A02
 dn ___,0,$A02
 dn ___,0,$A02
 dn ___,0,$A02
 dn D_6,2,$481
 dn ___,0,$481
 dn A#5,2,$481
 dn ___,0,$A01
 dn ___,0,$A01
 dn ___,0,$A01

P15:
 dn C_4,5,$442
 dn ___,0,$442
 dn C_5,5,$442
 dn ___,0,$442
 dn C_4,5,$442
 dn ___,0,$442
 dn C_5,5,$442
 dn ___,0,$442
 dn C_4,5,$442
 dn ___,0,$442
 dn C_5,5,$442
 dn ___,0,$442
 dn C_4,5,$442
 dn ___,0,$442
 dn C_5,5,$442
 dn ___,0,$442
 dn C_4,5,$442
 dn ___,0,$442
 dn C_5,5,$442
 dn ___,0,$442
 dn C_4,5,$442
 dn ___,0,$442
 dn C_5,5,$442
 dn ___,0,$442
 dn C_4,5,$442
 dn ___,0,$442
 dn C_5,5,$442
 dn ___,0,$442
 dn C_4,5,$442
 dn ___,0,$442
 dn C_5,5,$442
 dn ___,0,$442
 dn G#3,5,$442
 dn ___,0,$442
 dn G#4,5,$442
 dn ___,0,$442
 dn G#3,5,$442
 dn ___,0,$442
 dn G#4,5,$442
 dn ___,0,$442
 dn G#3,5,$442
 dn ___,0,$442
 dn G#4,5,$442
 dn ___,0,$442
 dn G#3,5,$442
 dn ___,0,$442
 dn G#4,5,$442
 dn ___,0,$442
 dn A#4,5,$C0F
 dn ___,0,$C0A
 dn ___,0,$C05
 dn ___,0,$C00
 dn A#4,5,$C0C
 dn ___,0,$C08
 dn ___,0,$C04
 dn ___,0,$C00
 dn A#5,5,$210
 dn ___,0,$210
 dn ___,0,$210
 dn ___,0,$210
 dn A#4,5,$442
 dn ___,0,$442
 dn F_4,5,$442
 dn ___,0,$442

P16:
 dn F_5,1,$000
 dn ___,0,$000
 dn F_6,2,$000
 dn ___,0,$000
 dn A#5,3,$000
 dn ___,0,$000
 dn F_6,2,$000
 dn ___,0,$000
 dn F_5,1,$000
 dn ___,0,$000
 dn F_5,1,$000
 dn ___,0,$000
 dn A#5,3,$000
 dn ___,0,$000
 dn F_5,1,$000
 dn F_6,2,$000
 dn F_5,1,$000
 dn ___,0,$000
 dn F_6,2,$000
 dn ___,0,$000
 dn A#5,3,$000
 dn ___,0,$000
 dn F_6,2,$000
 dn ___,0,$000
 dn F_5,1,$000
 dn ___,0,$000
 dn F_5,1,$000
 dn ___,0,$000
 dn A#5,3,$000
 dn ___,0,$000
 dn F_5,1,$000
 dn F_6,2,$000
 dn F_5,1,$000
 dn ___,0,$000
 dn F_6,2,$000
 dn ___,0,$000
 dn A#5,3,$000
 dn ___,0,$000
 dn F_6,2,$000
 dn ___,0,$000
 dn F_5,1,$000
 dn ___,0,$000
 dn F_5,1,$000
 dn ___,0,$000
 dn A#5,3,$000
 dn ___,0,$000
 dn F_5,1,$000
 dn F_6,2,$000
 dn F_5,1,$000
 dn ___,0,$000
 dn ___,0,$000
 dn ___,0,$000
 dn F_6,2,$000
 dn ___,0,$000
 dn ___,0,$000
 dn ___,0,$000
 dn F_6,2,$000
 dn ___,0,$000
 dn F_6,2,$000
 dn ___,0,$000
 dn A#5,3,$000
 dn ___,0,$000
 dn A#5,3,$000
 dn ___,0,$000

P18:
 dn G_5,2,$481
 dn ___,0,$481
 dn ___,0,$A02
 dn ___,0,$A02
 dn D#5,2,$481
 dn ___,0,$481
 dn ___,0,$A02
 dn ___,0,$481
 dn ___,0,$A02
 dn ___,0,$A02
 dn G#5,2,$481
 dn ___,0,$A02
 dn ___,0,$A02
 dn G#5,2,$C1E
 dn A#5,2,$30F
 dn ___,0,$30F
 dn G_5,2,$481
 dn ___,0,$481
 dn ___,0,$481
 dn ___,0,$481
 dn ___,0,$A02
 dn ___,0,$481
 dn ___,0,$A02
 dn ___,0,$A02
 dn F_5,2,$31F
 dn ___,0,$481
 dn ___,0,$A02
 dn ___,0,$481
 dn ___,0,$A02
 dn ___,0,$481
 dn ___,0,$A02
 dn ___,0,$A02
 dn G_5,2,$481
 dn ___,0,$481
 dn ___,0,$A02
 dn ___,0,$A02
 dn D#5,2,$481
 dn ___,0,$481
 dn ___,0,$A02
 dn ___,0,$481
 dn ___,0,$A02
 dn ___,0,$481
 dn ___,0,$202
 dn ___,0,$202
 dn D#5,2,$C09
 dn ___,0,$481
 dn ___,0,$A02
 dn ___,0,$481
 dn G_5,2,$C09
 dn ___,0,$481
 dn ___,0,$A02
 dn ___,0,$481
 dn D#5,2,$C0A
 dn ___,0,$481
 dn ___,0,$A02
 dn ___,0,$481
 dn D_5,2,$30F
 dn ___,0,$30F
 dn ___,0,$481
 dn ___,0,$481
 dn F_5,2,$31F
 dn ___,0,$481
 dn ___,0,$481
 dn ___,0,$481

P19:
 dn D#4,4,$4A2
 dn ___,0,$4A2
 dn D#4,4,$4A2
 dn ___,0,$4A2
 dn D#5,4,$4A2
 dn ___,0,$4A2
 dn D#4,4,$4A2
 dn ___,0,$4A2
 dn G#4,4,$4A2
 dn ___,0,$4A2
 dn G#4,4,$4A2
 dn ___,0,$4A2
 dn G#5,4,$4A2
 dn ___,0,$4A2
 dn G#4,4,$4A2
 dn ___,0,$4A2
 dn C_5,4,$4A2
 dn ___,0,$4A2
 dn C_5,4,$4A2
 dn ___,0,$4A2
 dn C_6,4,$4A2
 dn ___,0,$4A2
 dn C_5,4,$4A2
 dn ___,0,$4A2
 dn A#4,4,$4A2
 dn ___,0,$4A2
 dn A#4,4,$4A2
 dn ___,0,$4A2
 dn A#5,4,$4A2
 dn ___,0,$4A2
 dn A#4,4,$4A2
 dn ___,0,$4A2
 dn D#4,4,$4A2
 dn ___,0,$4A2
 dn D#4,4,$4A2
 dn ___,0,$4A2
 dn D#5,4,$4A2
 dn ___,0,$4A2
 dn D#4,4,$4A2
 dn ___,0,$4A2
 dn G#4,4,$4A2
 dn ___,0,$4A2
 dn G#4,4,$4A2
 dn ___,0,$4A2
 dn G#5,4,$4A2
 dn ___,0,$4A2
 dn G#4,4,$4A2
 dn ___,0,$4A2
 dn C_5,4,$4A2
 dn ___,0,$4A2
 dn C_5,4,$4A2
 dn ___,0,$4A2
 dn C_6,4,$4A2
 dn ___,0,$4A2
 dn C_5,4,$4A2
 dn ___,0,$4A2
 dn A#4,4,$4A2
 dn ___,0,$4A2
 dn A#4,4,$4A2
 dn ___,0,$4A2
 dn A#5,4,$4A2
 dn ___,0,$4A2
 dn A#4,4,$4A2
 dn ___,0,$4A2

P20:
 dn F_5,1,$000
 dn ___,0,$000
 dn F_6,2,$000
 dn ___,0,$000
 dn F_6,2,$000
 dn ___,0,$000
 dn F_5,1,$000
 dn ___,0,$000
 dn A#5,3,$000
 dn ___,0,$000
 dn F_6,2,$000
 dn F_6,2,$000
 dn F_5,1,$000
 dn ___,0,$000
 dn A#5,3,$000
 dn ___,0,$000
 dn F_5,1,$000
 dn ___,0,$000
 dn A#5,3,$000
 dn ___,0,$000
 dn F_5,1,$000
 dn ___,0,$000
 dn F_6,2,$000
 dn ___,0,$000
 dn A#5,3,$000
 dn ___,0,$000
 dn F_6,2,$000
 dn F_6,2,$000
 dn F_5,1,$000
 dn ___,0,$000
 dn F_5,1,$000
 dn ___,0,$000
 dn F_5,1,$000
 dn ___,0,$000
 dn F_6,2,$000
 dn ___,0,$000
 dn F_6,2,$000
 dn ___,0,$000
 dn F_5,1,$000
 dn ___,0,$000
 dn A#5,3,$000
 dn ___,0,$000
 dn F_6,2,$000
 dn F_6,2,$000
 dn F_5,1,$000
 dn ___,0,$000
 dn A#5,3,$000
 dn ___,0,$000
 dn F_5,1,$000
 dn ___,0,$000
 dn A#5,3,$000
 dn ___,0,$000
 dn F_5,1,$000
 dn ___,0,$000
 dn F_6,2,$000
 dn ___,0,$000
 dn A#5,3,$000
 dn ___,0,$000
 dn F_6,2,$000
 dn F_6,2,$000
 dn F_5,1,$000
 dn ___,0,$000
 dn F_5,1,$000
 dn ___,0,$000

P21:
 dn D#7,10,$047
 dn ___,0,$047
 dn ___,0,$047
 dn ___,0,$047
 dn D#7,9,$047
 dn D#7,10,$047
 dn D#7,9,$047
 dn D#7,10,$047
 dn C_7,10,$038
 dn ___,0,$038
 dn ___,0,$038
 dn ___,0,$038
 dn C_7,9,$038
 dn C_7,10,$038
 dn C_7,9,$038
 dn C_7,10,$038
 dn C_7,10,$037
 dn ___,0,$037
 dn ___,0,$037
 dn ___,0,$037
 dn C_7,9,$037
 dn C_7,10,$037
 dn C_7,9,$037
 dn C_7,10,$037
 dn A#6,10,$047
 dn ___,0,$047
 dn ___,0,$047
 dn ___,0,$047
 dn A#6,9,$047
 dn A#6,10,$047
 dn A#6,9,$047
 dn A#6,10,$047
 dn D#7,10,$047
 dn ___,0,$047
 dn ___,0,$047
 dn ___,0,$047
 dn D#7,9,$047
 dn D#7,10,$047
 dn D#7,9,$047
 dn D#7,10,$047
 dn C_7,10,$038
 dn ___,0,$038
 dn ___,0,$038
 dn ___,0,$038
 dn C_7,9,$038
 dn C_7,10,$038
 dn C_7,9,$038
 dn C_7,10,$038
 dn C_7,10,$037
 dn ___,0,$037
 dn ___,0,$037
 dn ___,0,$037
 dn C_7,9,$037
 dn C_7,10,$037
 dn C_7,9,$037
 dn C_7,10,$037
 dn A#6,10,$047
 dn ___,0,$047
 dn ___,0,$047
 dn ___,0,$047
 dn A#6,9,$047
 dn A#6,10,$047
 dn A#6,9,$047
 dn A#6,10,$047

P22:
 dn G_5,2,$481
 dn ___,0,$481
 dn ___,0,$A02
 dn ___,0,$A02
 dn D#5,2,$481
 dn ___,0,$481
 dn ___,0,$A02
 dn ___,0,$481
 dn ___,0,$A02
 dn ___,0,$A02
 dn G#5,2,$481
 dn ___,0,$A02
 dn ___,0,$A02
 dn G#5,2,$C1E
 dn A#5,2,$30F
 dn ___,0,$30F
 dn G_5,2,$481
 dn ___,0,$481
 dn ___,0,$481
 dn ___,0,$481
 dn ___,0,$A02
 dn ___,0,$481
 dn ___,0,$A02
 dn ___,0,$A02
 dn F_5,2,$31F
 dn ___,0,$481
 dn ___,0,$A02
 dn ___,0,$481
 dn ___,0,$A02
 dn ___,0,$481
 dn ___,0,$A02
 dn ___,0,$A02
 dn G_5,2,$481
 dn ___,0,$481
 dn ___,0,$A02
 dn ___,0,$A02
 dn D#5,2,$481
 dn ___,0,$481
 dn ___,0,$A02
 dn ___,0,$481
 dn ___,0,$A02
 dn ___,0,$481
 dn ___,0,$202
 dn ___,0,$202
 dn D#5,2,$C09
 dn ___,0,$481
 dn ___,0,$A02
 dn ___,0,$481
 dn G_5,2,$C09
 dn ___,0,$481
 dn ___,0,$A02
 dn ___,0,$481
 dn D#5,2,$C0A
 dn ___,0,$481
 dn ___,0,$A02
 dn ___,0,$481
 dn D#6,2,$3F0
 dn ___,0,$481
 dn D_6,2,$340
 dn D#6,2,$C09
 dn C_6,2,$340
 dn D_6,2,$C09
 dn A#5,2,$360
 dn C_6,2,$B04

itNoiseSP1:
 dn ___,0,$000
 dn 51,0,$000
 dn 42,0,$000
 dn 43,0,$000
 dn 42,5,$000
 dn 41,0,$000
 dn 39,0,$000
 dn ___,0,$000
 dn ___,0,$000
 dn ___,0,$000
 dn ___,0,$000
 dn ___,0,$000
 dn ___,0,$000
 dn ___,0,$000
 dn ___,0,$000
 dn ___,0,$000
 dn ___,0,$000
 dn ___,0,$000
 dn ___,0,$000
 dn ___,0,$000
 dn ___,0,$000
 dn ___,0,$000
 dn ___,0,$000
 dn ___,0,$000
 dn ___,0,$000
 dn ___,0,$000
 dn ___,0,$000
 dn ___,0,$000
 dn ___,0,$000
 dn ___,0,$000
 dn ___,0,$000
 dn ___,1,$000

itNoiseSP2:
 dn ___,0,$000
 dn 59,0,$000
 dn 58,0,$000
 dn 58,0,$000
 dn 58,5,$000
 dn 58,0,$000
 dn 58,0,$000
 dn ___,0,$000
 dn ___,0,$000
 dn ___,0,$000
 dn ___,0,$000
 dn ___,0,$000
 dn ___,0,$000
 dn ___,0,$000
 dn ___,0,$000
 dn ___,0,$000
 dn ___,0,$000
 dn ___,0,$000
 dn ___,0,$000
 dn ___,0,$000
 dn ___,0,$000
 dn ___,0,$000
 dn ___,0,$000
 dn ___,0,$000
 dn ___,0,$000
 dn ___,0,$000
 dn ___,0,$000
 dn ___,0,$000
 dn ___,0,$000
 dn ___,0,$000
 dn ___,0,$000
 dn ___,1,$000

itNoiseSP3:
 dn ___,0,$000
 dn 59,0,$000
 dn 56,0,$000
 dn 53,0,$000
 dn 47,5,$000
 dn 38,0,$000
 dn 32,0,$000
 dn ___,0,$000
 dn ___,0,$000
 dn ___,0,$000
 dn ___,0,$000
 dn ___,0,$000
 dn ___,0,$000
 dn ___,0,$000
 dn ___,0,$000
 dn ___,0,$000
 dn ___,0,$000
 dn ___,0,$000
 dn ___,0,$000
 dn ___,0,$000
 dn ___,0,$000
 dn ___,0,$000
 dn ___,0,$000
 dn ___,0,$000
 dn ___,0,$000
 dn ___,0,$000
 dn ___,0,$000
 dn ___,0,$000
 dn ___,0,$000
 dn ___,0,$000
 dn ___,0,$000
 dn ___,1,$000

duty_instruments:
itSquareinst1:
db 8
db 0
db 240
dw 0
db 128

itSquareinst2:
db 8
db 64
db 240
dw 0
db 128

itSquareinst3:
db 8
db 128
db 240
dw 0
db 128

itSquareinst4:
db 8
db 192
db 240
dw 0
db 128

itSquareinst5:
db 8
db 0
db 241
dw 0
db 128

itSquareinst6:
db 8
db 64
db 241
dw 0
db 128

itSquareinst7:
db 8
db 128
db 241
dw 0
db 128

itSquareinst8:
db 8
db 192
db 241
dw 0
db 128

itSquareinst9:
db 8
db 192
db 192
dw 0
db 128

itSquareinst10:
db 8
db 192
db 64
dw 0
db 128

itSquareinst11:
db 8
db 128
db 240
dw 0
db 128

itSquareinst12:
db 8
db 128
db 240
dw 0
db 128

itSquareinst13:
db 8
db 128
db 240
dw 0
db 128

itSquareinst14:
db 8
db 128
db 240
dw 0
db 128

itSquareinst15:
db 8
db 128
db 240
dw 0
db 128



wave_instruments:
itWaveinst1:
db 0
db 32
db 0
dw 0
db 128

itWaveinst2:
db 0
db 32
db 1
dw 0
db 128

itWaveinst3:
db 0
db 32
db 2
dw 0
db 128

itWaveinst4:
db 0
db 32
db 3
dw 0
db 128

itWaveinst5:
db 0
db 32
db 4
dw 0
db 128

itWaveinst6:
db 0
db 32
db 5
dw 0
db 128

itWaveinst7:
db 0
db 32
db 6
dw 0
db 128

itWaveinst8:
db 0
db 32
db 7
dw 0
db 128

itWaveinst9:
db 0
db 32
db 8
dw 0
db 128

itWaveinst10:
db 0
db 32
db 9
dw 0
db 128

itWaveinst11:
db 0
db 32
db 10
dw 0
db 128

itWaveinst12:
db 0
db 32
db 11
dw 0
db 128

itWaveinst13:
db 0
db 32
db 12
dw 0
db 128

itWaveinst14:
db 0
db 32
db 13
dw 0
db 128

itWaveinst15:
db 0
db 32
db 14
dw 0
db 128



noise_instruments:
itNoiseinst1:
db 241
dw itNoiseSP1
db 128
ds 2

itNoiseinst2:
db 241
dw itNoiseSP2
db 119
ds 2

itNoiseinst3:
db 241
dw itNoiseSP3
db 0
ds 2

itNoiseinst4:
db 240
dw 0
db 0
ds 2

itNoiseinst5:
db 240
dw 0
db 0
ds 2

itNoiseinst6:
db 240
dw 0
db 0
ds 2

itNoiseinst7:
db 240
dw 0
db 0
ds 2

itNoiseinst8:
db 14
dw 0
db 128
ds 2

itNoiseinst9:
db 240
dw 0
db 0
ds 2

itNoiseinst10:
db 240
dw 0
db 0
ds 2

itNoiseinst11:
db 240
dw 0
db 0
ds 2

itNoiseinst12:
db 240
dw 0
db 0
ds 2

itNoiseinst13:
db 240
dw 0
db 0
ds 2

itNoiseinst14:
db 240
dw 0
db 0
ds 2

itNoiseinst15:
db 240
dw 0
db 0
ds 2



routines:
__hUGE_Routine_0:

__end_hUGE_Routine_0:
ret

__hUGE_Routine_1:

__end_hUGE_Routine_1:
ret

__hUGE_Routine_2:

__end_hUGE_Routine_2:
ret

__hUGE_Routine_3:

__end_hUGE_Routine_3:
ret

__hUGE_Routine_4:

__end_hUGE_Routine_4:
ret

__hUGE_Routine_5:

__end_hUGE_Routine_5:
ret

__hUGE_Routine_6:

__end_hUGE_Routine_6:
ret

__hUGE_Routine_7:

__end_hUGE_Routine_7:
ret

__hUGE_Routine_8:

__end_hUGE_Routine_8:
ret

__hUGE_Routine_9:

__end_hUGE_Routine_9:
ret

__hUGE_Routine_10:

__end_hUGE_Routine_10:
ret

__hUGE_Routine_11:

__end_hUGE_Routine_11:
ret

__hUGE_Routine_12:

__end_hUGE_Routine_12:
ret

__hUGE_Routine_13:

__end_hUGE_Routine_13:
ret

__hUGE_Routine_14:

__end_hUGE_Routine_14:
ret

__hUGE_Routine_15:

__end_hUGE_Routine_15:
ret

waves:
wave0: db 0,0,255,255,255,255,255,255,255,255,255,255,255,255,255,255
wave1: db 0,0,0,0,255,255,255,255,255,255,255,255,255,255,255,255
wave2: db 0,0,0,0,0,0,0,0,255,255,255,255,255,255,255,255
wave3: db 119,255,32,0,69,86,102,119,114,34,34,34,34,42,170,168
wave4: db 0,114,16,221,218,206,17,17,27,132,34,238,238,17,17,31
wave5: db 254,220,186,152,118,84,50,16,18,52,86,120,154,188,222,255
wave6: db 122,205,219,117,33,19,104,189,220,151,65,1,71,156,221,184
wave7: db 15,15,15,15,15,15,15,15,15,15,15,15,15,15,15,15
wave8: db 254,252,250,248,246,244,242,240,242,244,246,248,250,252,254,255
wave9: db 254,221,204,187,170,153,136,119,138,189,241,36,87,138,189,238
wave10: db 132,17,97,237,87,71,90,173,206,163,23,121,221,32,3,71
wave11: db 172,62,174,26,65,37,150,201,135,144,229,10,190,123,192,1
wave12: db 182,163,148,189,77,28,105,53,208,184,66,208,19,157,172,5
wave13: db 172,118,74,84,13,186,237,129,158,34,196,170,106,216,196,72
wave14: db 68,161,237,2,163,94,55,102,8,76,35,92,235,204,94,28
wave15: db 123,148,39,36,194,89,115,232,32,201,204,201,93,110,18,236

